#!OML:ASF F:\VICON\USERDATA\INSTALL\rory3\rory3.ASF
:FULLY-SPECIFIED
:DEGREES
817
root -4.28326 17.7161 -2.08107 17.6093 18.0111 5.86141
lowerback 12.6906 4.17885 1.56556
upperback 7.91596 5.84055 8.881
thorax 0.474446 2.84253 7.78125
lowerneck -8.06765 -12.9431 -9.97483
upperneck 29.7165 -17.8922 5.97755
head 12.6918 -8.17434 1.41761
rclavicle 3.33958e-014 -1.59028e-014
rhumerus 14.7886 -2.72599 -98.3188
rradius 27.9121
rwrist -14.2369
rhand -14.7941 -18.5942
rfingers 7.12502
rthumb 11.3633 -48.2663
lclavicle 3.33958e-014 -1.59028e-014
lhumerus -19.4476 -21.853 84.5876
lradius 65.5878
lwrist 66.8877
lhand -25.6955 59.6407
lfingers 7.12502
lthumb 0.839874 -990.381
rfemur -24.2552 -7.82939 8.16223
rtibia 44.3427
rfoot -24.0373 -1.07067
rtoes -12.4349
lfemur -32.7592 3.60459 -30.3364
ltibia 25.5976
lfoot -5.68528 -7.14361
ltoes -10.7306
818
root -4.2991 17.7131 -2.1032 17.5533 18.1402 5.88925
lowerback 12.7663 4.28442 1.74298
upperback 7.98187 5.99723 8.89167
thorax 0.50071 2.92522 7.66754
lowerneck -8.42352 -13.1324 -9.74951
upperneck 29.7872 -18.1472 5.84397
head 12.7771 -8.26136 1.2663
rclavicle 4.13472e-014 8.90555e-014
rhumerus 15.0318 -2.85156 -98.834
rradius 27.9064
rwrist -14.0515
rhand -14.8528 -18.7921
rfingers 7.12502
rthumb 11.3067 -48.4673
lclavicle 4.13472e-014 8.90555e-014
lhumerus -19.7703 -20.9677 84.211
lradius 65.8494
lwrist 66.9898
lhand -25.9645 60.0236
lfingers 7.12502
lthumb 0.580064 -1170
rfemur -24.0311 -7.86452 8.34129
rtibia 44.0047
rfoot -24.1451 -1.11634
rtoes -12.6402
lfemur -32.7845 3.70454 -30.3873
ltibia 25.5592
lfoot -5.50232 -7.3071
ltoes -10.2054
819
root -4.32005 17.7084 -2.12662 17.4704 18.1609 5.81491
lowerback 12.8308 4.42655 1.9322
upperback 8.02487 6.20304 8.88692
thorax 0.506589 3.03324 7.52265
lowerneck -8.91692 -13.3158 -9.54052
upperneck 30.1616 -18.4275 5.76318
head 13.0277 -8.33744 1.11607
rclavicle -4.13472e-014 1.90833e-014
rhumerus 15.2054 -3.21173 -99.4969
rradius 27.9631
rwrist -13.704
rhand -15.0506 -18.9712
rfingers 7.12502
rthumb 11.116 -48.6567
lclavicle -4.13472e-014 1.90833e-014
lhumerus -20.0899 -20.2692 83.7821
lradius 66.0656
lwrist 67.0349
lhand -26.2301 60.2089
lfingers 7.12502
lthumb 0.323537 -1170.19
rfemur -23.8641 -7.71779 8.60712
rtibia 43.6327
rfoot -24.2801 -1.20317
rtoes -13.1943
lfemur -32.8397 3.87972 -30.3338
ltibia 25.5249
lfoot -5.33713 -7.40855
ltoes -10.4956
820
root -4.34045 17.7043 -2.15 17.4616 18.1545 5.94458
lowerback 12.8692 4.52668 1.9254
upperback 8.00973 6.3357 8.82745
thorax 0.45952 3.10082 7.43822
lowerneck -9.13725 -13.4312 -9.46723
upperneck 30.349 -18.6233 5.80004
head 13.1671 -8.39329 1.06484
rclavicle -1.27222e-014 -4.45278e-014
rhumerus 15.1488 -3.46503 -100.062
rradius 28.165
rwrist -13.5704
rhand -15.2872 -19.0853
rfingers 7.12502
rthumb 10.8878 -48.7831
lclavicle -1.27222e-014 -4.45278e-014
lhumerus -20.6227 -19.6436 83.464
lradius 66.3759
lwrist 66.9006
lhand -26.6163 60.3289
lfingers 7.12502
lthumb -0.0495372 -1170.31
rfemur -23.6923 -7.73583 8.63809
rtibia 43.2317
rfoot -24.2604 -1.14388
rtoes -13.4203
lfemur -32.8963 4.04624 -30.5113
ltibia 25.5015
lfoot -5.26354 -7.54939
ltoes -10.788
821
root -4.36042 17.7045 -2.1728 17.4154 18.1637 6.09535
lowerback 12.9316 4.58602 1.83396
upperback 7.99585 6.40963 8.81513
thorax 0.39401 3.13642 7.45984
lowerneck -9.05227 -13.4894 -9.39551
upperneck 30.2368 -18.71 5.78127
head 13.0993 -8.43213 1.04124
rclavicle 2.54444e-014 -2.22639e-014
rhumerus 15.0408 -3.58776 -100.507
rradius 28.2899
rwrist -13.6658
rhand -15.5328 -19.1661
rfingers 7.12502
rthumb 10.6509 -48.8762
lclavicle 2.54444e-014 -2.22639e-014
lhumerus -21.2015 -18.9875 83.2652
lradius 66.6537
lwrist 66.7666
lhand -26.8549 60.3957
lfingers 7.12502
lthumb -0.27998 -1170.38
rfemur -23.4731 -7.59481 8.61547
rtibia 42.8183
rfoot -24.3316 -1.17854
rtoes -13.2426
lfemur -32.871 4.13081 -30.6654
ltibia 25.4819
lfoot -5.19489 -7.66922
ltoes -10.6457
822
root -4.38135 17.7042 -2.19579 17.2808 18.2867 6.06967
lowerback 12.9713 4.59907 1.9424
upperback 8.02795 6.43993 8.86235
thorax 0.409923 3.15404 7.44443
lowerneck -8.73209 -13.517 -9.44825
upperneck 29.8517 -18.7733 5.94895
head 12.9049 -8.47124 1.12947
rclavicle -4.92986e-014 6.36111e-014
rhumerus 15.115 -3.60618 -100.813
rradius 28.282
rwrist -14.0934
rhand -15.7465 -19.2293
rfingers 7.12502
rthumb 10.4447 -48.9498
lclavicle -4.92986e-014 6.36111e-014
lhumerus -21.6773 -18.4438 83.1391
lradius 66.8347
lwrist 66.6402
lhand -27.0501 60.7578
lfingers 7.12502
lthumb -0.468478 -1170.74
rfemur -23.2224 -7.40673 8.81755
rtibia 42.397
rfoot -24.5157 -1.44222
rtoes -13.6214
lfemur -32.8216 4.09354 -30.5781
ltibia 25.4457
lfoot -5.0924 -7.68007
ltoes -10.5447
823
root -4.4048 17.6989 -2.22345 17.207 18.3272 6.04717
lowerback 12.9921 4.62371 1.96062
upperback 8.05879 6.47625 8.94633
thorax 0.420239 3.17169 7.52069
lowerneck -8.5133 -13.5441 -9.65776
upperneck 29.4669 -18.8326 6.2162
head 12.7641 -8.50989 1.26717
rclavicle -1.1609e-013 -4.45278e-014
rhumerus 15.1802 -3.56371 -100.97
rradius 28.2985
rwrist -14.6166
rhand -16.0887 -19.2029
rfingers 7.12502
rthumb 10.1146 -48.9398
lclavicle -1.1609e-013 -4.45278e-014
lhumerus -22.194 -17.8277 83.1475
lradius 67.0653
lwrist 66.4425
lhand -27.2506 61.0566
lfingers 7.12502
lthumb -0.662168 -1171.04
rfemur -23.1149 -7.17657 9.00463
rtibia 41.967
rfoot -24.5391 -1.67202
rtoes -13.7489
lfemur -32.8899 4.07417 -30.5053
ltibia 25.4444
lfoot -4.96587 -7.61968
ltoes -10.4395
